<svg width="472" height="187" viewBox="0 0 472 187" xmlns="http://www.w3.org/2000/svg">
    <defs>
        <filter x="-9.2%" y="-8.2%" width="118.5%" height="116.4%" filterUnits="objectBoundingBox" id="8cettkxyaa">
            <feOffset in="SourceAlpha" result="shadowOffsetOuter1"/>
            <feGaussianBlur stdDeviation="2" in="shadowOffsetOuter1" result="shadowBlurOuter1"/>
            <feColorMatrix values="0 0 0 0 1 0 0 0 0 0.380392157 0 0 0 0 0 0 0 0 1 0" in="shadowBlurOuter1" result="shadowMatrixOuter1"/>
            <feMerge>
                <feMergeNode in="shadowMatrixOuter1"/>
                <feMergeNode in="SourceGraphic"/>
            </feMerge>
        </filter>
    </defs>
    <g fill="none" fill-rule="evenodd">
        <path d="M2 0h470v187H2z"/>
        <g fill="#2E2F30" fill-rule="nonzero">
            <path d="M167.601 86.985c0 7.923-2.813 14.68-8.44 20.271-5.625 5.628-12.399 8.442-20.32 8.442-7.884 0-14.64-2.814-20.266-8.442-5.626-5.59-8.439-12.348-8.439-20.271V35.669c0-1.852.666-3.444 1.999-4.777 1.332-1.296 2.905-1.943 4.72-1.943h.166c1.813 0 3.387.647 4.72 1.943 1.332 1.333 1.998 2.925 1.998 4.777v51.316c0 4.184 1.462 7.757 4.386 10.719 2.961 2.925 6.533 4.387 10.716 4.387 4.22 0 7.81-1.462 10.771-4.387 2.924-2.962 4.386-6.535 4.386-10.72V35.67c0-1.852.667-3.444 2-4.777 1.332-1.296 2.905-1.943 4.719-1.943h.166c1.814 0 3.387.647 4.72 1.943 1.332 1.333 1.998 2.925 1.998 4.777v51.316zM201.17 108.978c0 1.888-.667 3.461-2 4.72-1.332 1.333-2.905 2-4.72 2h-.166c-1.813 0-3.386-.667-4.719-2-1.333-1.259-1.999-2.832-1.999-4.72V55.662c0-7.368 2.61-13.662 7.829-18.883 5.219-5.22 11.511-7.83 18.877-7.83 8.81 0 15.454 2.924 19.933 8.774 4.441-5.85 11.067-8.774 19.877-8.774 7.365 0 13.658 2.61 18.877 7.83 5.22 5.22 7.829 11.515 7.829 18.883v53.316c0 1.85-.648 3.424-1.944 4.72-1.332 1.333-2.924 2-4.775 2h-.11c-1.888 0-3.461-.667-4.72-2-1.332-1.259-1.999-2.832-1.999-4.72V55.662c0-3.666-1.277-6.776-3.83-9.33-2.555-2.555-5.664-3.832-9.328-3.832-3.628 0-6.719 1.277-9.273 3.832-2.554 2.554-3.83 5.664-3.83 9.33v53.316c0 1.888-.667 3.461-2 4.72-1.258 1.333-2.831 2-4.719 2h-.11c-1.852 0-3.443-.667-4.776-2-1.332-1.259-1.999-2.832-1.999-4.72V55.662c0-3.666-1.277-6.776-3.83-9.33-2.555-2.555-5.645-3.832-9.273-3.832-3.627 0-6.718 1.277-9.272 3.832-2.554 2.554-3.83 5.664-3.83 9.33v53.316zM342.45 28.949c11.955 0 22.19 4.239 30.703 12.718 8.477 8.478 12.715 18.697 12.715 30.656 0 11.96-4.238 22.178-12.715 30.657-8.513 8.478-18.748 12.718-30.703 12.718-11.956 0-22.172-4.24-30.649-12.718-8.476-8.48-12.714-18.698-12.714-30.657s4.238-22.178 12.714-30.656c8.477-8.48 18.693-12.718 30.649-12.718zm0 13.55c-8.218 0-15.232 2.907-21.043 8.72-5.812 5.813-8.717 12.848-8.717 21.104 0 8.257 2.905 15.291 8.717 21.104 5.811 5.776 12.825 8.664 21.043 8.664 8.254 0 15.287-2.888 21.098-8.664 5.811-5.813 8.717-12.847 8.717-21.104 0-8.256-2.906-15.291-8.717-21.104-5.811-5.813-12.844-8.72-21.098-8.72zM461.632 108.978c0 1.888-.666 3.461-1.998 4.72-1.333 1.333-2.906 2-4.72 2h-.166c-1.814 0-3.387-.667-4.72-2-1.332-1.259-1.998-2.832-1.998-4.72V57.66c0-4.184-1.463-7.756-4.387-10.718-2.96-2.962-6.551-4.443-10.771-4.443-4.183 0-7.755 1.48-10.716 4.443-2.924 2.962-4.386 6.534-4.386 10.718v51.317c0 1.888-.666 3.461-1.999 4.72-1.332 1.333-2.905 2-4.72 2h-.166c-1.813 0-3.387-.667-4.72-2-1.332-1.259-1.998-2.832-1.998-4.72V57.66c0-7.923 2.813-14.699 8.44-20.326 5.626-5.591 12.38-8.386 20.265-8.386 7.921 0 14.695 2.795 20.321 8.386 5.626 5.627 8.44 12.403 8.44 20.326v51.317z"/>
        </g>
        <g filter="url(#8cettkxyaa)" transform="translate(6.052 26.587)">
            <path d="M43.262 0c23.893 0 43.262 20.093 43.262 44.88 0 12.648-4.501 23.986-12.678 32.173l-5.863-6.298c6.514-6.524 10.1-15.58 10.1-25.875 0-19.95-15.59-36.124-34.821-36.124C24.03 8.756 8.44 24.929 8.44 44.88c0 19.951 15.59 36.125 34.822 36.125.872 0 1.739-.033 2.598-.099l.643-.056 2.048-.196 15.115 16.624H52.064l-6.876-7.563-.31.015c-.27.01-.538.018-.808.023l-.808.008C19.369 89.76 0 69.667 0 44.88 0 20.094 19.369 0 43.262 0z" fill="#FFC500" fill-rule="nonzero"/>
            <path d="M43.262 5.521c21.33 0 38.62 17.938 38.62 40.066 0 10.69-4.062 20.713-11.132 28.141l-5.865-6.3c5.441-5.793 8.557-13.554 8.557-21.841 0-17.292-13.512-31.31-30.18-31.31s-30.18 14.018-30.18 31.31c0 17.29 13.512 31.307 30.18 31.307 1.234 0 2.455-.076 3.66-.227l.72-.1 2.149-.324 19.502 21.034H57.577l-6.642-7.16-4.28-4.622-.178.018a37.59 37.59 0 0 1-2.407.128l-.808.009c-21.33 0-38.62-17.937-38.62-40.063 0-22.128 17.29-40.066 38.62-40.066z" fill="#FF9800" fill-rule="nonzero"/>
            <path d="M42.869 11.683c18.272 0 33.138 15.421 33.138 34.378 0 9.185-2.83 17.499-8.828 23.831l-4.09-4.394c4.843-5.182 7.031-11.927 7.031-19.437 0-15.59-12.225-28.272-27.251-28.272-15.027 0-27.253 12.682-27.253 28.272 0 15.59 12.226 28.27 27.253 28.27 1.851 0 3.7-.192 5.494-.573l1.605-.34 21.679 23.86H63.56L47.906 80.043c-1.661.262-3.348.395-5.037.395-18.273 0-33.138-15.422-33.138-34.377 0-18.957 14.865-34.378 33.138-34.378z" fill="#FF6100"/>
            <path d="M43.416 16.043c15.51 0 28.128 13.29 28.128 29.628 0 7.988-2.446 15.212-7.632 20.688l-3.47-3.788c4.207-4.485 6.105-10.355 6.105-16.9 0-13.435-10.377-24.366-23.131-24.366-12.756 0-23.133 10.93-23.133 24.366S30.66 70.037 43.416 70.037c1.571 0 3.14-.166 4.664-.495l1.362-.292 25.44 28.027h-6.883L47.69 74.96c-1.41.226-2.842.341-4.275.341-15.51 0-28.129-13.292-28.129-29.629 0-16.337 12.618-29.628 28.129-29.628z" fill="#FF2800"/>
        </g>
        <g fill="#2E2F30" fill-rule="nonzero">
            <path d="M17.126 142.683h4.612v25.925h-4.612zM44.413 142.683h6.114l12.556 19.26h.073v-19.26h4.613v25.925h-5.857l-12.813-19.883h-.073v19.883h-4.613zM95.862 146.857h-7.944v-4.174h20.5v4.174h-7.944v21.751h-4.612zM128.567 142.683h17.17v4.174H133.18v6.372h11.897v4.174H133.18v7.03h13.215v4.175h-17.828zM167.936 142.683h4.612v21.75h11.02v4.175h-15.632zM203.936 142.683h4.612v21.75h11.02v4.175h-15.632zM239.826 142.683h4.613v25.925h-4.613zM290.14 166.704c-3.197 1.709-6.772 2.563-10.726 2.563-2.001 0-3.838-.323-5.51-.97-1.671-.647-3.111-1.563-4.32-2.747-1.207-1.184-2.153-2.606-2.836-4.266-.684-1.66-1.025-3.503-1.025-5.529 0-2.075.341-3.96 1.025-5.657.683-1.697 1.629-3.143 2.837-4.34 1.208-1.196 2.648-2.117 4.32-2.764 1.671-.647 3.508-.97 5.509-.97 1.977 0 3.832.238 5.564.714a11.452 11.452 0 0 1 4.65 2.544l-3.405 3.443c-.83-.806-1.836-1.429-3.02-1.868a10.694 10.694 0 0 0-3.752-.66c-1.343 0-2.557.239-3.643.715a8.335 8.335 0 0 0-2.8 1.977 8.981 8.981 0 0 0-1.812 2.948c-.428 1.123-.641 2.331-.641 3.625 0 1.392.213 2.673.64 3.845.428 1.172 1.032 2.185 1.813 3.04a8.432 8.432 0 0 0 2.8 2.013c1.086.489 2.3.733 3.643.733 1.171 0 2.275-.11 3.313-.33 1.037-.22 1.958-.561 2.763-1.025v-6.115h-5.308v-4.175h9.921v13.256zM312.595 142.683h17.17v4.174h-12.557v6.372h11.898v4.174h-11.898v7.03h13.215v4.175h-17.828zM351.964 142.683h6.113l12.557 19.26h.073v-19.26h4.612v25.925h-5.857l-12.813-19.883h-.073v19.883h-4.612zM415.896 148.761c-.952-1.025-1.874-1.709-2.764-2.05a7.46 7.46 0 0 0-2.691-.513c-1.342 0-2.556.238-3.642.714a8.335 8.335 0 0 0-2.8 1.977 8.982 8.982 0 0 0-1.813 2.948c-.427 1.123-.64 2.331-.64 3.625 0 1.392.213 2.673.64 3.845.427 1.172 1.031 2.185 1.812 3.04a8.432 8.432 0 0 0 2.8 2.013c1.087.489 2.3.733 3.643.733a6.69 6.69 0 0 0 3.057-.75c.988-.501 1.91-1.3 2.764-2.4l3.807 2.71c-1.172 1.611-2.6 2.783-4.283 3.516-1.684.732-3.478 1.098-5.382 1.098-2 0-3.837-.323-5.51-.97-1.67-.647-3.11-1.563-4.319-2.747-1.208-1.184-2.154-2.606-2.837-4.266-.683-1.66-1.025-3.503-1.025-5.529 0-2.075.342-3.96 1.025-5.657.683-1.697 1.63-3.143 2.837-4.34 1.208-1.196 2.648-2.117 4.32-2.764 1.672-.647 3.508-.97 5.51-.97 1.757 0 3.386.31 4.887.933 1.5.623 2.898 1.679 4.191 3.168l-3.587 2.636zM440.181 142.683h17.17v4.174h-12.557v6.372h11.897v4.174h-11.897v7.03h13.215v4.175h-17.828z"/>
        </g>
    </g>
</svg>
